<svg width="189" height="24" viewBox="0 0 189 24" fill="none" xmlns="http://www.w3.org/2000/svg">
<path d="M15.6659 8.30139C15.8243 8.30146 15.9529 8.43009 15.953 8.5885V15.7662L15.9442 16.1696C15.9392 16.278 15.9326 16.3866 15.9237 16.4938C15.9196 16.5417 15.9027 16.5886 15.8758 16.6285L11.7713 22.7223C11.7401 22.7686 11.6962 22.8059 11.6444 22.8268C11.2613 22.9809 10.8612 23.0938 10.4491 23.1608C10.2178 23.1981 10.0634 22.9431 10.1746 22.7369C10.7986 21.5841 11.1599 20.2172 11.16 18.7526V15.3073C11.1599 15.1488 11.0313 15.0202 10.8729 15.0201H1.40218C1.17043 14.9896 0.95066 14.927 0.759606 14.8346C0.451504 14.6852 0.233472 14.4668 0.143395 14.2184C0.142638 14.2163 0.142139 14.2137 0.141442 14.2115C-0.126336 13.747 -0.00272445 13.1011 0.417809 12.7682L5.81527 8.4967C5.86063 8.4608 5.90767 8.42982 5.9559 8.40491C6.00851 8.34227 6.08655 8.30157 6.17465 8.30139H15.6659ZM22.0506 0.835571C22.209 0.835802 22.3377 0.964273 22.3377 1.12268V8.30042L22.3289 8.70374C22.324 8.81224 22.3174 8.92065 22.3084 9.02795C22.3044 9.07584 22.2874 9.12186 22.2606 9.16174L18.1561 15.2565C18.1249 15.3026 18.0808 15.3391 18.0291 15.36C17.6461 15.5141 17.246 15.6279 16.8338 15.6949C16.6026 15.7323 16.4483 15.4773 16.5594 15.2711C17.1834 14.1183 17.5447 12.7514 17.5448 11.2867V7.84143C17.5448 7.68302 17.416 7.55455 17.2577 7.55432H7.78011C7.55097 7.52321 7.33349 7.46122 7.14437 7.36975C6.83618 7.22028 6.6182 7.00205 6.52816 6.75354C6.52738 6.75138 6.52694 6.74888 6.52621 6.7467C6.25843 6.28207 6.38197 5.63624 6.80258 5.30334L12.1776 1.04944C12.227 1.01034 12.2782 0.976489 12.3309 0.949829C12.3833 0.880727 12.4661 0.835768 12.5594 0.835571H22.0506ZM0.554528 13.9H4.76937C7.39023 13.9 9.6419 12.0566 10.6278 9.41956C10.6958 9.23754 10.5583 9.04782 10.3641 9.04749H6.68539L0.554528 13.9ZM6.94125 6.4342H11.1541C13.7748 6.434 16.0267 4.59062 17.0125 1.95374C17.0805 1.77182 16.9429 1.58215 16.7489 1.58167H13.0721L6.94125 6.4342ZM19.617 3.38733C19.1768 3.38755 18.8202 3.7449 18.8202 4.18518C18.8203 4.6253 19.1769 4.98183 19.617 4.98206C20.0572 4.9819 20.4147 4.62534 20.4149 4.18518C20.4149 3.74486 20.0573 3.38748 19.617 3.38733Z" fill="#E8E5F8"/>
<path d="M39.6404 15.3048C39.6404 15.757 39.583 16.1653 39.4683 16.5298C39.3535 16.8875 39.2017 17.2047 39.0127 17.4814C38.8237 17.7514 38.6044 17.9842 38.3547 18.18C38.1049 18.3689 37.8417 18.5242 37.565 18.6457C37.295 18.7672 37.0217 18.8583 36.745 18.919C36.4683 18.973 36.205 19 35.9553 19H31.2073V16.3678H35.9553C36.3063 16.3678 36.5695 16.2767 36.745 16.0945C36.9205 15.9122 37.0082 15.649 37.0082 15.3048V11.7615C37.0082 11.397 36.9171 11.1271 36.7349 10.9516C36.5594 10.7761 36.2995 10.6884 35.9553 10.6884H31.2275C30.8698 10.6884 30.5998 10.7795 30.4176 10.9617C30.2354 11.1372 30.1443 11.397 30.1443 11.7412V22.4218H27.5121V11.7412C27.5121 11.289 27.5694 10.8841 27.6842 10.5264C27.7989 10.1687 27.9508 9.85483 28.1397 9.58486C28.3355 9.30814 28.5582 9.0753 28.8079 8.88632C29.0576 8.69059 29.3175 8.53198 29.5874 8.4105C29.8642 8.28901 30.1409 8.20127 30.4176 8.14728C30.7011 8.08654 30.9643 8.05617 31.2073 8.05617H35.9553C36.4075 8.05617 36.8125 8.11353 37.1702 8.22827C37.5279 8.34301 37.8417 8.49486 38.1117 8.68384C38.3884 8.87282 38.6213 9.09217 38.8102 9.34189C39.006 9.59161 39.1646 9.85483 39.2861 10.1315C39.4075 10.4015 39.4953 10.6749 39.5493 10.9516C39.61 11.2283 39.6404 11.4915 39.6404 11.7412V15.3048ZM51.465 10.6884H45.5426C45.1849 10.6884 44.9149 10.7795 44.7327 10.9617C44.5504 11.1372 44.4593 11.397 44.4593 11.7412V19H41.8271V11.7412C41.8271 11.289 41.8845 10.8841 41.9992 10.5264C42.114 10.1687 42.2658 9.85483 42.4548 9.58486C42.6505 9.30814 42.8733 9.0753 43.123 8.88632C43.3727 8.69059 43.6325 8.53198 43.9025 8.4105C44.1792 8.28901 44.4559 8.20127 44.7327 8.14728C45.0161 8.08654 45.2793 8.05617 45.5223 8.05617H51.465V10.6884ZM55.879 5.80868H53.2468V3.42959H55.879V5.80868ZM55.879 19H53.2468V8.05617H55.879V19ZM68.1794 19H65.5472V11.7412C65.5472 11.397 65.4561 11.1372 65.2739 10.9617C65.0916 10.7795 64.8217 10.6884 64.464 10.6884H61.0421V19H58.4099V9.36214C58.4099 9.17991 58.4437 9.01118 58.5112 8.85595C58.5787 8.69397 58.6731 8.55561 58.7946 8.44087C58.9161 8.31938 59.0578 8.2249 59.2198 8.1574C59.3818 8.08991 59.5539 8.05617 59.7361 8.05617H64.4842C64.8487 8.05617 65.2401 8.12028 65.6586 8.24852C66.077 8.37675 66.4752 8.5826 66.8532 8.86607V8.05617H70.4168C70.6665 8.05617 70.9297 8.08654 71.2064 8.14728C71.4831 8.20127 71.7565 8.28901 72.0264 8.4105C72.3032 8.53198 72.5664 8.69059 72.8161 8.88632C73.0658 9.0753 73.2852 9.30814 73.4741 9.58486C73.6631 9.85483 73.815 10.1687 73.9297 10.5264C74.0445 10.8841 74.1018 11.289 74.1018 11.7412V19H71.4696V11.7412C71.4696 11.397 71.3819 11.1372 71.2064 10.9617C71.0377 10.7795 70.7745 10.6884 70.4168 10.6884H68.0478C68.1355 11.0123 68.1794 11.3633 68.1794 11.7412V19ZM88.3055 11.6805C88.3055 12.0449 88.2414 12.4398 88.1132 12.865C87.9849 13.2834 87.7757 13.6749 87.4855 14.0393C87.202 14.397 86.8274 14.6974 86.3618 14.9404C85.9028 15.1833 85.3426 15.3048 84.6812 15.3048H79.9331V12.8042H84.6812C85.0389 12.8042 85.3156 12.6962 85.5114 12.4803C85.7071 12.2575 85.8049 11.9842 85.8049 11.6602C85.8049 11.316 85.6936 11.0461 85.4709 10.8503C85.2549 10.6546 84.9917 10.5567 84.6812 10.5567H79.9331C79.5754 10.5567 79.2987 10.6681 79.103 10.8908C78.9073 11.1068 78.8094 11.3768 78.8094 11.7007V15.3757C78.8094 15.7266 78.9174 16 79.1334 16.1957C79.3561 16.3914 79.6294 16.4893 79.9534 16.4893H84.6812V19H79.9331C79.5687 19 79.1739 18.9359 78.7487 18.8076C78.3302 18.6794 77.9387 18.4736 77.5743 18.1901C77.2166 17.8999 76.9162 17.5253 76.6733 17.0664C76.4303 16.6007 76.3088 16.0371 76.3088 15.3757V11.6805C76.3088 11.316 76.3729 10.9246 76.5012 10.5061C76.6294 10.0809 76.8353 9.68947 77.1187 9.33177C77.4089 8.96731 77.7835 8.66359 78.2425 8.42062C78.7082 8.17765 79.2717 8.05617 79.9331 8.05617H84.6812C85.0457 8.05617 85.4371 8.12028 85.8556 8.24852C86.2808 8.37675 86.6722 8.58598 87.0299 8.87619C87.3944 9.15966 87.6981 9.53424 87.9411 9.99994C88.184 10.4589 88.3055 11.0191 88.3055 11.6805ZM108.098 8.05617C107.679 8.9943 107.227 9.91895 106.741 10.8301C106.255 11.7345 105.745 12.5916 105.212 13.4015C104.686 14.2114 104.146 14.9606 103.592 15.649C103.039 16.3307 102.489 16.9212 101.942 17.4207C101.402 17.9134 100.873 18.3015 100.353 18.5849C99.8399 18.8616 99.354 19 98.895 19C98.706 19 98.5306 18.9663 98.3686 18.8988C98.2066 18.8313 98.0649 18.7402 97.9434 18.6254C97.8219 18.5039 97.7274 18.3622 97.6599 18.2002C97.5924 18.0382 97.5587 17.8628 97.5587 17.6738V12.7637L92.3348 18.6052C92.1998 18.7402 92.0513 18.8414 91.8894 18.9089C91.7341 18.9696 91.5721 19 91.4034 19C91.2212 19 91.0491 18.9663 90.8871 18.8988C90.7319 18.8313 90.5935 18.7402 90.472 18.6254C90.3505 18.5039 90.2527 18.3622 90.1784 18.2002C90.1109 18.0382 90.0772 17.8628 90.0772 17.6738V8.05617H92.7094V14.2924L97.9535 8.43075C98.1425 8.24177 98.3652 8.12366 98.6217 8.07641C98.8849 8.02242 99.1414 8.04942 99.3911 8.1574C99.6408 8.25864 99.8365 8.42062 99.9783 8.64335C100.127 8.85932 100.201 9.09892 100.201 9.36214V15.6186C100.768 15.072 101.281 14.4949 101.74 13.8875C102.199 13.28 102.624 12.6557 103.015 12.0146C103.414 11.3667 103.785 10.712 104.129 10.0506C104.48 9.38238 104.821 8.71759 105.152 8.05617H108.098ZM120.783 11.6805C120.783 12.0449 120.719 12.4398 120.59 12.865C120.462 13.2834 120.253 13.6749 119.963 14.0393C119.679 14.397 119.305 14.6974 118.839 14.9404C118.38 15.1833 117.82 15.3048 117.158 15.3048H112.41V12.8042H117.158C117.516 12.8042 117.793 12.6962 117.989 12.4803C118.184 12.2575 118.282 11.9842 118.282 11.6602C118.282 11.316 118.171 11.0461 117.948 10.8503C117.732 10.6546 117.469 10.5567 117.158 10.5567H112.41C112.053 10.5567 111.776 10.6681 111.58 10.8908C111.384 11.1068 111.287 11.3768 111.287 11.7007V15.3757C111.287 15.7266 111.395 16 111.611 16.1957C111.833 16.3914 112.107 16.4893 112.431 16.4893H117.158V19H112.41C112.046 19 111.651 18.9359 111.226 18.8076C110.807 18.6794 110.416 18.4736 110.051 18.1901C109.694 17.8999 109.393 17.5253 109.15 17.0664C108.907 16.6007 108.786 16.0371 108.786 15.3757V11.6805C108.786 11.316 108.85 10.9246 108.978 10.5061C109.107 10.0809 109.312 9.68947 109.596 9.33177C109.886 8.96731 110.261 8.66359 110.72 8.42062C111.185 8.17765 111.749 8.05617 112.41 8.05617H117.158C117.523 8.05617 117.914 8.12028 118.333 8.24852C118.758 8.37675 119.149 8.58598 119.507 8.87619C119.872 9.15966 120.175 9.53424 120.418 9.99994C120.661 10.4589 120.783 11.0191 120.783 11.6805ZM134.622 15.3048C134.622 15.5545 134.592 15.8178 134.531 16.0945C134.477 16.3712 134.389 16.6479 134.268 16.9246C134.146 17.1946 133.988 17.4544 133.792 17.7042C133.603 17.9539 133.37 18.1766 133.093 18.3723C132.823 18.5613 132.509 18.7132 132.152 18.8279C131.794 18.9426 131.389 19 130.937 19H126.189C125.939 19 125.676 18.973 125.399 18.919C125.122 18.8583 124.846 18.7672 124.569 18.6457C124.299 18.5242 124.039 18.3689 123.789 18.18C123.54 17.9842 123.317 17.7514 123.121 17.4814C122.932 17.2047 122.78 16.8875 122.666 16.5298C122.551 16.1653 122.494 15.757 122.494 15.3048V3.42959H125.126V15.3048C125.126 15.6288 125.227 15.8886 125.43 16.0843C125.632 16.2733 125.885 16.3678 126.189 16.3678H130.937C131.268 16.3678 131.524 16.2699 131.706 16.0742C131.895 15.8785 131.99 15.622 131.99 15.3048V11.7412C131.99 11.4105 131.892 11.1541 131.696 10.9718C131.5 10.7828 131.247 10.6884 130.937 10.6884H126.189V8.05617H130.937C131.187 8.05617 131.45 8.08654 131.727 8.14728C132.003 8.20127 132.277 8.28901 132.547 8.4105C132.823 8.53198 133.086 8.69059 133.336 8.88632C133.586 9.0753 133.805 9.30814 133.994 9.58486C134.183 9.85483 134.335 10.1687 134.45 10.5264C134.565 10.8841 134.622 11.289 134.622 11.7412V15.3048ZM148.876 15.3048C148.876 15.757 148.819 16.1653 148.704 16.5298C148.589 16.8875 148.438 17.2047 148.249 17.4814C148.06 17.7514 147.84 17.9842 147.591 18.18C147.341 18.3689 147.078 18.5242 146.801 18.6457C146.531 18.7672 146.254 18.8583 145.971 18.919C145.694 18.973 145.431 19 145.181 19H140.433C139.981 19 139.576 18.9426 139.218 18.8279C138.86 18.7132 138.543 18.5613 138.267 18.3723C137.997 18.1766 137.764 17.9539 137.568 17.7042C137.379 17.4544 137.224 17.1946 137.102 16.9246C136.981 16.6479 136.89 16.3712 136.829 16.0945C136.775 15.811 136.748 15.5478 136.748 15.3048V11.7412C136.748 11.0663 136.869 10.496 137.112 10.0303C137.362 9.55786 137.669 9.17653 138.034 8.88632C138.405 8.58935 138.806 8.37675 139.238 8.24852C139.67 8.12028 140.069 8.05617 140.433 8.05617H145.181V10.6884H140.453C140.102 10.6884 139.836 10.7795 139.653 10.9617C139.471 11.1372 139.38 11.397 139.38 11.7412V15.2846C139.38 15.6423 139.468 15.9122 139.643 16.0945C139.826 16.2767 140.089 16.3678 140.433 16.3678H145.181C145.539 16.3678 145.805 16.2767 145.981 16.0945C146.156 15.9122 146.244 15.649 146.244 15.3048V3.42959H148.876V15.3048ZM163.161 11.6805C163.161 12.0449 163.097 12.4398 162.969 12.865C162.84 13.2834 162.631 13.6749 162.341 14.0393C162.057 14.397 161.683 14.6974 161.217 14.9404C160.758 15.1833 160.198 15.3048 159.537 15.3048H154.789V12.8042H159.537C159.894 12.8042 160.171 12.6962 160.367 12.4803C160.563 12.2575 160.66 11.9842 160.66 11.6602C160.66 11.316 160.549 11.0461 160.326 10.8503C160.11 10.6546 159.847 10.5567 159.537 10.5567H154.789C154.431 10.5567 154.154 10.6681 153.958 10.8908C153.763 11.1068 153.665 11.3768 153.665 11.7007V15.3757C153.665 15.7266 153.773 16 153.989 16.1957C154.212 16.3914 154.485 16.4893 154.809 16.4893H159.537V19H154.789C154.424 19 154.029 18.9359 153.604 18.8076C153.186 18.6794 152.794 18.4736 152.43 18.1901C152.072 17.8999 151.772 17.5253 151.529 17.0664C151.286 16.6007 151.164 16.0371 151.164 15.3757V11.6805C151.164 11.316 151.228 10.9246 151.357 10.5061C151.485 10.0809 151.691 9.68947 151.974 9.33177C152.264 8.96731 152.639 8.66359 153.098 8.42062C153.564 8.17765 154.127 8.05617 154.789 8.05617H159.537C159.901 8.05617 160.293 8.12028 160.711 8.24852C161.136 8.37675 161.528 8.58598 161.885 8.87619C162.25 9.15966 162.554 9.53424 162.796 9.99994C163.039 10.4589 163.161 11.0191 163.161 11.6805ZM177.992 8.05617C177.695 8.98081 177.348 9.89195 176.95 10.7896C176.551 11.6872 176.092 12.5444 175.573 13.361C175.06 14.1709 174.483 14.9235 173.842 15.6186C173.207 16.3071 172.502 16.9044 171.726 17.4106C170.956 17.91 170.116 18.3048 169.205 18.595C168.3 18.8785 167.318 19.0202 166.259 19.0202C166.077 19.0202 165.904 18.9865 165.743 18.919C165.581 18.8515 165.439 18.7604 165.317 18.6457C165.196 18.5242 165.101 18.3858 165.034 18.2306C164.966 18.0686 164.933 17.8965 164.933 17.7143V8.05617H167.565V16.2868C168.206 16.2868 168.82 16.1485 169.407 15.8717C170.001 15.595 170.561 15.2306 171.088 14.7784C171.614 14.3194 172.1 13.7997 172.546 13.2193C172.998 12.6389 173.399 12.0449 173.75 11.4375C174.101 10.8233 174.398 10.2227 174.641 9.63548C174.891 9.0483 175.077 8.52186 175.198 8.05617H177.992Z" fill="#F8F7FF"/>
</svg>
